Patient4_TMGait_0pt6_02_right_06_EMG.mot
version=1
nRows=13
nColumns=33
inDegrees=no
endheader
time	1LAddLong	2LGlutMax	3LGlutMed	4LIliopsoas	5LSemiMemb	6LBicFemLong	7LRecFem	8LVastMed	9LVastLat	10LGasMed	11LTibAnt	12lTibPost	13LPeroneusLong	14LSol	15LExtDigLong	16LFlexDigLong	17RAddLong	18RGlutMax	19RGlutMed	20RIliopsoas	21RSemiMemb	22RBicFemLong	23RRecFem	24RVastMed	25RVastLat	26RGasMed	27RTibAnt	28RTibPost	29RPeroneusLong	30RSol	31RExtDigLong	32RFlexDigLong
7.5	0.005493	-0.086517	-0.033875	-0.013123	-0.058746	0.052948	0.005035	0.027161	0.16861	-0.019226	-0.099945	0.01236	-0.15335	0.039063	-0.16174	0.004883	0.021515	-0.18448	-0.20157	-0.054932	0.10681	-0.082855	-0.23743	0.007629	0.05249	0.013275	-0.059662	0	1.1984	0.043488	-0.002747	0.010223
7.501	0.044403	-0.11032	-0.025482	-0.004272	0.20264	0.032806	-0.08194	0.02594	0.32135	-0.022278	-0.12695	0.007935	0.14633	-0.054932	-0.07431	0.002441	0.024414	-0.18158	-0.31448	-0.022583	0.021362	-0.070343	-0.21866	0.023346	0.071716	0.007477	-0.38223	0.001221	1.7926	-0.10574	-0.001221	0.003204
7.502	0.038605	-0.17685	-0.0383	0.005798	0.25406	0.16464	-0.053101	0.019989	0.45181	-0.011139	-0.082703	-0.005341	0.18524	0.037231	0.032959	-0.001984	0.031891	-0.18112	-0.31204	-0.024414	-0.036926	0.029449	-0.22858	-0.008545	0.057373	0.001984	-0.013123	-0.006714	0.86517	-0.091858	-0.000916	0.005646
7.503	0.024719	-0.20111	0.02594	0.04425	0.15915	0.36957	0.035553	0.015259	0.39581	-0.021362	-0.098419	-0.003815	0.077362	0.10574	-0.005493	0.005188	0.008392	-0.19318	-0.23071	-0.10239	-0.027313	-0.028534	-0.21988	0.022888	0.069122	-0.001678	0.14999	-0.005188	-0.12482	-0.057068	-0.000305	0.000305
7.504	-0.007019	-0.18997	0.019684	0.024109	0.083313	0.50522	0.12497	0.000916	0.13794	-0.001068	-0.1152	-0.007477	-0.039978	0.071411	0.14679	0.001526	-0.009003	-0.090332	-0.26337	-0.14603	0.020905	-0.012054	-0.22598	0.016785	0.066681	0.00824	-0.45273	-0.007172	0.28519	-0.078125	0.001526	0.003357
7.505	-0.014648	-0.1796	-0.094757	-0.008545	0.001221	0.49103	0.19012	0.016632	-0.10544	0.026245	-0.094604	0.003204	-0.096588	-0.005493	0.042114	-0.005798	-0.002747	-0.19547	-0.32349	-0.038147	-0.011902	0.12756	-0.21988	0.066071	0.05188	0.013275	-0.79819	-0.002136	0.055389	-0.11093	-0.000305	-0.001984
7.506	-0.015106	-0.19089	-0.1796	-0.011292	-0.045929	0.39902	0.15076	0.030975	-0.21088	0.016937	-0.070801	-0.001831	-0.001984	-0.09201	-0.043335	0.006714	0.016937	-0.24414	-0.33646	0.22888	0.007019	0.066681	-0.19455	0.03006	0.055695	0.01358	-0.6395	-0.001831	-0.006866	-0.039673	-0.001678	-0.00473
7.507	-0.002136	-0.10239	-0.19379	-0.002441	-0.047302	0.22903	0.11551	0.033722	-0.04837	0.03891	0.082092	-0.003815	-0.007172	-0.159	-0.099182	-0.001221	0.029297	-0.22766	-0.32761	0.23758	0.23377	-0.13473	-0.19745	-0.037689	0.025177	-0.001526	-0.21576	-0.007629	0.62241	0.073242	-0.000916	-0.004578
7.508	0.027161	-0.09201	0.004272	0.005646	-0.047607	-0.10376	0.06073	0.023651	0.03891	0.05249	0.046234	0.006866	0.015717	-0.10757	-0.2002	0.004272	0.032501	-0.23819	-0.26245	0.076294	0.19791	-0.11963	-0.20996	-0.069733	0.00412	-0.000916	-0.016937	-0.00885	0.92758	-0.013275	-0.00412	-0.012817
7.509	0.036011	-0.052795	0.20523	-0.005798	0.022278	-0.45334	0.011902	0.010376	0.058594	0.036926	-0.079346	-0.001526	0.005646	-0.070648	0.11826	0.006866	0.023804	-0.20401	-0.20035	-0.033875	0.020752	0.003357	-0.15411	-0.092316	-0.018158	0.002899	0.11093	-0.006409	-0.14084	0.07843	-0.00412	-0.013428
7.51	0.034943	-0.11261	0.26428	-0.007782	0.087891	-0.32166	0.089569	0.005493	-0.065613	0.039063	-0.008087	0	-0.027924	-0.082245	0.14526	-0.005798	0.007477	-0.24719	-0.23758	-0.075531	-0.12009	0.087738	-0.18478	0.002136	0.019684	0.006104	0.215	-0.002289	-0.97137	0.12085	-0.003662	-0.013428
7.511	0.022125	-0.17624	0.1384	0.010071	0.11627	-0.044098	0.11688	0.020752	-0.20844	0.04425	-0.00946	-0.001831	-0.068665	-0.10681	-0.041962	-0.005646	0.017242	-0.2861	-0.26199	-0.1152	-0.028076	-0.11353	-0.17777	0.005341	0.003967	0.026398	0.2092	0.00061	-0.91522	0.025787	-0.007935	-0.011902
7.512	0.014801	-0.23315	0.078278	0.015564	0.070953	0.052795	0.056305	-0.010986	-0.22812	0.024719	0.04303	-0.001221	-0.077667	-0.015259	-0.10757	-0.005035	0.030823	-0.30029	-0.17853	-0.059204	0.019073	-0.31082	-0.16174	-0.056763	-0.037231	0.016174	0.066986	-0.007172	0.61722	0.075684	-0.001068	-0.014954
